<svg fill="none" xmlns="http://www.w3.org/2000/svg" viewBox="0 0 121 50">
  <g clip-path="url(#fI3PahvzEkHka)">
    <path d="M59.17 47.312c-.175-.231-.36-.384-.565-.468V46.8c.111-.057.222-.142.332-.257a1.373 1.373 0 00.38-.958c0-.321-.074-.6-.222-.847a1.533 1.533 0 00-.632-.58 2.03 2.03 0 00-.948-.21H54.27v5.784h3.355c.359 0 .675-.069.949-.21.274-.143.485-.332.632-.58.148-.247.221-.526.221-.847 0-.29-.09-.552-.258-.784zm-3.6-2.258h1.734c.158 0 .29.027.395.08a.59.59 0 01.248.22.585.585 0 01.084.321.622.622 0 01-.084.332.595.595 0 01-.248.22.913.913 0 01-.395.08v-.005h-1.733v-1.248zm2.477 3.258a.55.55 0 01-.242.221.833.833 0 01-.374.079h-1.86v-1.247h1.86c.22 0 .39.057.516.173a.594.594 0 01.184.453.647.647 0 01-.084.32zm3.914 1.416h1.297v-1.916l2.402-3.863h-1.512l-1.454 2.395h-.185l-1.464-2.395h-1.502l2.413 3.863v1.916h.005zm6.813-10.879h3.313l3.272 7.658h.358l3.272-7.657h3.314v10.872H80.11v-7.546h-.358l-3.224 7.546h-1.992l-3.224-7.546h-.358v7.546h-2.192V38.85h.01zm22.922 0h-2.981l-4.5 10.873h2.345l.911-2.268h5.469l.911 2.268h2.329L91.696 38.85zm-3.435 6.647h-.005l1.77-4.394h.359l1.77 4.394H88.26zm9.847-6.652h5.737c.722 0 1.365.153 1.929.453.579.3 1.027.726 1.343 1.273.322.548.48 1.21.48 1.895 0 .684-.164 1.29-.48 1.816a3.37 3.37 0 01-1.264 1.226 3.433 3.433 0 01-1.386.42l3.13 3.79h-2.477l-4.425-5.715h3.066c.327 0 .617-.058.864-.184a1.39 1.39 0 00.569-.558 1.61 1.61 0 00.216-.837c0-.316-.074-.59-.216-.826a1.294 1.294 0 00-.569-.558 1.933 1.933 0 00-.864-.184h-3.456l-.047 3.152.047 5.715h-2.192V38.85l-.005-.005zm18.408.005h-2.982l-4.499 10.873h2.344l.912-2.268h5.468l.912 2.268h2.328l-4.483-10.873zm-3.44 6.647l1.77-4.394h.353l1.77 4.394h-3.893z" fill="#EEECE8"/>
    <path d="M.443 35.218v-8.041l16.79-11.789c.659-.558 1.143-1.079 1.454-1.552.311-.48.469-1.095.469-1.853 0-.658-.18-1.231-.543-1.726-.363-.495-.906-.895-1.628-1.21-.727-.31-1.58-.469-2.565-.469-.922 0-1.755.163-2.492.495-.743.332-1.328.816-1.755 1.458-.426.642-.642 1.42-.642 2.342H0c0-2.532.606-4.774 1.828-6.731 1.217-1.958 2.914-3.469 5.084-4.537C9.082.537 11.585 0 14.414 0c2.83 0 5.29.526 7.482 1.579 2.186 1.052 3.882 2.473 5.084 4.268 1.2 1.795 1.801 3.79 1.801 5.994 0 1.316-.163 2.474-.495 3.479a8.302 8.302 0 01-1.607 2.81c-.742.874-1.723 1.7-2.94 2.49l-7.655 5.82v.247h12.787v8.531H.432h.01zM63.579 6.515c-1.07-1.873-2.592-3.31-4.567-4.315C57.036 1.195 54.744.695 52.147.695H33.239v34.523h9.525v-9.715h9.383c2.602 0 4.889-.51 6.865-1.531 1.975-1.021 3.498-2.458 4.567-4.316 1.07-1.857 1.607-4.089 1.607-6.583 0-2.495-.537-4.684-1.607-6.558zM55.113 15c-.327.558-.8.994-1.407 1.305-.61.31-1.327.468-2.15.468H42.77v-7.3h8.788c.822 0 1.538.142 2.15.421.605.279 1.074.69 1.406 1.232.332.542.495 1.21.495 2 0 .689-.168 1.315-.495 1.873zm23.181 20.22V.694h-9.53v34.523h9.53zm23.998.694c3.156 0 6.053-.616 8.687-1.847 2.635-1.237 4.805-2.921 6.517-5.058 1.707-2.136 2.877-4.584 3.504-7.346h-9.873c-.69 1.678-1.818 3.041-3.382 4.094-1.565 1.052-3.383 1.579-5.458 1.579-1.939 0-3.662-.395-5.158-1.184-1.497-.79-2.687-1.89-3.556-3.305-.87-1.416-1.307-3.042-1.307-4.884 0-1.842.432-3.468 1.307-4.884a9.073 9.073 0 013.556-3.305c1.496-.79 3.213-1.184 5.158-1.184 1.38 0 2.655.237 3.824.716a9.77 9.77 0 013.035 1.92 8.586 8.586 0 011.976 2.79h9.873a17.579 17.579 0 00-3.53-7.179c-1.728-2.12-3.899-3.789-6.517-5.005-2.619-1.215-5.506-1.826-8.667-1.826-3.624 0-6.928.758-9.925 2.269-2.998 1.51-5.358 3.626-7.087 6.336-1.728 2.716-2.592 5.826-2.592 9.346 0 3.521.864 6.637 2.592 9.347 1.729 2.71 4.089 4.826 7.087 6.336 2.997 1.511 6.306 2.269 9.925 2.269l.011.005zm12.744-32.819h.68V.684h.964V.005h-2.608v.68h.964V3.1v-.006zm2.16.006h.685V.879h.105l.743 2.22h.748l.733-2.22h.105v2.22h.68V.006h-1.144l-.705 2.11h-.106l-.706-2.11h-1.143V3.1h.005z" fill="#F2A900"/>
  </g>
  <defs>
    <clipPath id="fI3PahvzEkHka">
      <path fill="#fff" d="M0 0h121v49.733H0z"/>
    </clipPath>
  </defs>
</svg>
