<svg fill="none" xmlns="http://www.w3.org/2000/svg" viewBox="0 0 886 185">
  <g clip-path="url(#simht-eBwuF6a)">
    <path d="M0 0v184.993h37.13V56.556h6.018l54.659 128.437h33.734L186.2 56.556h6.018v128.437h37.13V0h-56.224l-55.441 130.287h-6.017L56.224 0H0zm388.932 0h-50.473l-76.358 184.993h39.752l15.475-38.582h92.735l15.475 38.582h39.486L388.932 0zm-58.247 113.112l30.006-74.789h6.017l30.006 74.789h-66.029zM497.843 0v184.993h37.131l-.834-97.255.834-53.648h58.579c5.582 0 10.463 1.059 14.642 3.175 4.186 2.116 7.413 5.283 9.679 9.516 2.437 4.055 3.662 8.724 3.662 14.008 0 5.283-1.218 10.219-3.662 14.274-2.266 4.055-5.493 7.222-9.679 9.516-4.187 2.116-9.067 3.167-14.642 3.167h-52L616.604 185h42.063l-53.108-64.451c8.387-.718 16.236-3.108 23.56-7.171 9.067-5.106 16.214-12.069 21.441-20.874 5.405-8.984 8.107-19.291 8.107-30.924 0-11.632-2.702-22.902-8.107-32.24-5.404-9.339-12.987-16.56-22.748-21.674C618.221 2.553 607.323 0 595.119 0h-97.283.007zM809.9 0h-50.473l-76.358 184.993h39.752l15.475-38.582h92.735l15.483 38.582H886L809.9 0zm-58.247 113.112l30.006-74.789h6.01l30.006 74.789h-66.022zm84.31-87.05V5.764h-8.07V0h21.884v5.764h-8.07v20.298h-5.751.007zm18.104 0V0h9.613l5.922 17.804h.856L876.387 0H886v26.062h-5.752V7.4h-.856l-6.18 18.67h-6.269L860.675 7.4h-.856v18.67h-5.752v-.008z" fill="#353233"/>
  </g>
  <defs>
    <clipPath id="simht-eBwuF6a">
      <path fill="#fff" d="M0 0h886v185H0z"/>
    </clipPath>
  </defs>
</svg>
