<svg fill="none" xmlns="http://www.w3.org/2000/svg" viewBox="0 0 162 43">
  <path d="M0 16.581v17.853h3.615V22.039h.587l5.313 12.395h3.284l5.318-12.395h.586v12.395h3.61V16.58h-5.471l-5.39 12.573h-.586L5.47 16.581H0zm37.824 0h-4.91L25.49 34.434h3.865l1.504-3.723h9.015l1.504 3.723h3.84L37.824 16.58zm-5.665 10.92l2.917-7.217h.586L38.58 27.5h-6.42zm16.25-10.92v17.853h3.61l-.08-9.383.08-5.173h5.696c.546 0 1.02.101 1.423.304.408.208.724.507.943.918.235.39.357.842.357 1.354 0 .513-.117.99-.357 1.38-.219.39-.53.695-.943.918-.408.208-.882.304-1.423.304h-5.053l7.297 9.383h4.09l-5.166-6.223a5.57 5.57 0 002.29-.695 5.485 5.485 0 002.085-2.019c.525-.867.79-1.86.79-2.982 0-1.12-.26-2.211-.79-3.114a5.35 5.35 0 00-2.213-2.09c-.933-.491-1.994-.74-3.182-.74h-9.458l.005.005zm30.35 0h-4.91l-7.425 17.853h3.865l1.505-3.723h9.015l1.504 3.723h3.84L78.758 16.58zm-5.67 10.92l2.916-7.217h.582l2.916 7.217H73.09z" fill="#EEECE8"/>
  <path d="M151.539 34.439v-3.865h-1.545v-1.09h4.191v1.09h-1.545v3.855h-1.096v.01h-.005zm3.467 0v-4.955h1.836l1.132 3.383h.168l1.137-3.383h1.836v4.955h-1.096v-3.55h-.169l-1.183 3.55h-1.198l-1.198-3.55h-.168v3.55h-1.107.01zm-58.893 0V23.864h13.329v-5.02H96.113V13.29h14.43V8h-20.39v26.439h5.96zm31.955 0l5.125-16.92h.913l5.124 16.92h7.521L154.384 8h-6.414l-4.783 17.259h-.913L137.032 8h-6.684l-5.278 17.259h-.912L119.334 8h-6.379l7.669 26.439h7.444z" fill="#F2A900"/>
</svg>
