<svg fill="none" xmlns="http://www.w3.org/2000/svg" viewBox="0 0 144 45">
  <path d="M0 0v29.987h6.032V9.167h.978l8.88 20.82h5.48l8.88-20.82h.978v20.82h6.033V0h-9.135L19.12 21.12h-.977L9.134 0H0zm63.187 0h-8.2L42.582 29.987h6.458l2.514-6.254H66.62l2.514 6.254h6.415L63.187 0zm-9.463 18.335L58.6 6.212h.978l4.874 12.123H53.725zM80.881 0v29.987h6.033l-.136-15.765.136-8.696h9.517c.907 0 1.7.171 2.378.515.68.343 1.205.856 1.573 1.542.396.657.595 1.414.595 2.27 0 .857-.198 1.657-.595 2.315a3.91 3.91 0 01-1.573 1.542c-.68.343-1.473.513-2.378.513h-8.449l12.194 15.765h6.833l-8.628-10.447a9.483 9.483 0 003.828-1.163 9.249 9.249 0 003.483-3.383c.878-1.456 1.317-3.127 1.317-5.013 0-1.886-.439-3.712-1.317-5.226-.878-1.514-2.11-2.685-3.696-3.513C100.438.413 98.668 0 96.685 0H80.88h.001zm50.698 0h-8.2l-12.405 29.987h6.458l2.514-6.254h15.066l2.515 6.254h6.415L131.579 0zm-9.463 18.335l4.875-12.123h.976l4.875 12.123h-10.726zm13.697-14.11V.935h-1.311V0h3.556v.934h-1.312v3.29h-.934.001zm2.941 0V0h1.562l.962 2.886h.139L142.381 0h1.561v4.225h-.934V1.199h-.139l-1.004 3.027h-1.019l-1.018-3.027h-.139v3.027h-.935v-.001z" fill="#272525"/>
  <path d="M0 39.12a.24.24 0 01.24-.24h143.52a.24.24 0 01.24.24v5.52a.24.24 0 01-.24.24H.24a.24.24 0 01-.24-.24v-5.52z" fill="#F2A900"/>
</svg>
